<?xml version="1.0" encoding="UTF-8" standalone="no"?>
<!-- Created with Inkscape (http://www.inkscape.org/) -->

<svg
   width="210mm"
   height="297mm"
   viewBox="0 0 210 297"
   version="1.1"
   id="svg1"
   inkscape:version="1.4 (86a8ad7, 2024-10-11)"
   sodipodi:docname="výkres.svg"
   xmlns:inkscape="http://www.inkscape.org/namespaces/inkscape"
   xmlns:sodipodi="http://sodipodi.sourceforge.net/DTD/sodipodi-0.dtd"
   xmlns="http://www.w3.org/2000/svg"
   xmlns:svg="http://www.w3.org/2000/svg">
  <sodipodi:namedview
     id="namedview1"
     pagecolor="#ffffff"
     bordercolor="#999999"
     borderopacity="1"
     inkscape:showpageshadow="2"
     inkscape:pageopacity="0"
     inkscape:pagecheckerboard="0"
     inkscape:deskcolor="#d1d1d1"
     inkscape:document-units="mm"
     showguides="false"
     inkscape:zoom="0.81156706"
     inkscape:cx="330.84142"
     inkscape:cy="473.77477"
     inkscape:window-width="1920"
     inkscape:window-height="1171"
     inkscape:window-x="-9"
     inkscape:window-y="-9"
     inkscape:window-maximized="1"
     inkscape:current-layer="layer1" />
  <defs
     id="defs1">
    <inkscape:path-effect
       effect="fillet_chamfer"
       id="path-effect30"
       is_visible="true"
       lpeversion="1"
       nodesatellites_param="F,0,0,1,0,0,0,1 @ F,0,0,1,0,3.5731795,0,1 @ F,0,0,1,0,3.9163027,0,1 @ F,0,0,1,0,0,0,1"
       radius="0"
       unit="px"
       method="auto"
       mode="F"
       chamfer_steps="1"
       flexible="false"
       use_knot_distance="true"
       apply_no_radius="true"
       apply_with_radius="true"
       only_selected="false"
       hide_knots="false" />
    <inkscape:path-effect
       effect="fillet_chamfer"
       id="path-effect29"
       is_visible="true"
       lpeversion="1"
       nodesatellites_param="F,0,0,1,0,0,0,1 @ F,0,0,1,0,0,0,1 @ F,0,0,1,0,5,0,1 @ F,0,0,1,0,0,0,1 @ F,0,0,1,0,0,0,1 @ F,0,0,1,0,0,0,1 @ F,0,0,1,0,0,0,1 @ F,0,0,1,0,0,0,1 @ F,0,0,1,0,0,0,1 @ F,0,0,1,0,0,0,1 @ F,0,0,1,0,0,0,1 @ F,0,0,1,0,0,0,1 @ F,0,0,1,0,5,0,1 @ F,0,0,1,0,0,0,1 | F,0,0,1,0,0,0,1 @ F,0,0,1,0,0,0,1 | F,0,0,1,0,0,0,1 @ F,0,0,1,0,0,0,1 | F,0,0,1,0,0,0,1 @ F,0,0,1,0,0,0,1 | F,0,0,1,0,0,0,1 @ F,0,0,1,0,0,0,1 | F,0,0,1,0,0,0,1 @ F,0,0,1,0,0,0,1 | F,0,0,1,0,0,0,1 @ F,0,0,1,0,0,0,1 | F,0,0,1,0,0,0,1 @ F,0,0,1,0,0,0,1 | F,0,0,1,0,0,0,1 @ F,0,0,1,0,0,0,1 | F,0,0,1,0,0,0,1 @ F,0,0,1,0,0,0,1 | F,0,0,1,0,0,0,1 @ F,0,0,1,0,0,0,1 | F,0,0,1,0,0,0,1 @ F,0,0,1,0,0,0,1 | F,0,0,1,0,0,0,1 @ F,0,0,1,0,0,0,1 | F,0,0,1,0,0,0,1 @ F,0,0,1,0,0,0,1 | F,0,0,1,0,0,0,1 @ F,0,0,1,0,0,0,1 | F,0,0,1,0,0,0,1 @ F,0,0,1,0,0,0,1 | F,0,0,1,0,0,0,1 @ F,0,0,1,0,0,0,1 | F,0,0,1,0,0,0,1 @ F,0,0,1,0,0,0,1 | F,0,0,1,0,0,0,1 @ F,0,0,1,0,0,0,1 | F,0,0,1,0,0,0,1 @ F,0,0,1,0,0,0,1 | F,0,0,1,0,0,0,1 @ F,0,0,1,0,0,0,1 | F,0,0,1,0,0,0,1 @ F,0,0,1,0,0,0,1 | F,0,0,1,0,0,0,1 @ F,0,0,1,0,0,0,1 | F,0,0,1,0,0,0,1 @ F,0,0,1,0,0,0,1 | F,0,0,1,0,0,0,1 @ F,0,0,1,0,0,0,1 | F,0,0,1,0,0,0,1 @ F,0,0,1,0,0,0,1 | F,0,0,1,0,0,0,1 @ F,0,0,1,0,0,0,1 | F,0,0,1,0,0,0,1 @ F,0,0,1,0,0,0,1 | F,0,0,1,0,0,0,1 @ F,0,0,1,0,0,0,1"
       radius="0"
       unit="px"
       method="auto"
       mode="F"
       chamfer_steps="1"
       flexible="false"
       use_knot_distance="true"
       apply_no_radius="true"
       apply_with_radius="true"
       only_selected="false"
       hide_knots="false" />
    <inkscape:path-effect
       effect="envelope"
       id="path-effect14"
       is_visible="true"
       lpeversion="1"
       yy="true"
       xx="false"
       bendpath1="M 35.926489,89.124792 H 75.923014"
       bendpath2="M 75.923014,89.124792 V 112.52336"
       bendpath3="M 35.926489,112.52336 H 75.923014"
       bendpath4="M 35.926489,89.124792 V 112.52336" />
    <inkscape:path-effect
       effect="envelope"
       id="path-effect13"
       is_visible="true"
       lpeversion="1"
       yy="true"
       xx="false"
       bendpath1="M 35.962318,89.214211 H 75.95887"
       bendpath2="M 75.95887,89.214211 V 112.61277"
       bendpath3="M 35.962318,112.61277 H 75.95887"
       bendpath4="M 35.962318,89.214211 V 112.61277" />
    <inkscape:path-effect
       effect="envelope"
       id="path-effect12"
       is_visible="true"
       lpeversion="1"
       yy="true"
       xx="false"
       bendpath1="m 79.705212,89.329431 c 12.27916,-3.159047 26.557068,2.856795 39.996528,0"
       bendpath2="M 119.70174,89.329431 V 112.728"
       bendpath3="M 79.705212,112.728 H 119.70174"
       bendpath4="M 79.705212,89.329431 V 112.728"
       bendpath1-nodetypes="cc" />
    <inkscape:path-effect
       effect="fillet_chamfer"
       id="path-effect11"
       is_visible="true"
       lpeversion="1"
       nodesatellites_param="F,0,0,1,0,0,0,1 @ F,0,0,1,0,0,0,1 @ F,0,0,1,0,4.2959491,0,1 @ F,0,0,1,0,5,0,1 | F,0,0,1,0,0,0,1 @ F,0,0,1,0,0,0,1 @ F,0,0,1,0,0,0,1 @ F,0,0,1,0,0,0,1 @ F,0,0,1,0,0,0,1 @ F,0,0,1,0,0,0,1 @ F,0,0,1,0,0,0,1 @ F,0,0,1,0,0,0,1 @ F,0,0,1,0,0,0,1 @ F,0,0,1,0,0,0,1"
       radius="0"
       unit="px"
       method="auto"
       mode="F"
       chamfer_steps="1"
       flexible="false"
       use_knot_distance="true"
       apply_no_radius="true"
       apply_with_radius="true"
       only_selected="false"
       hide_knots="false" />
    <inkscape:path-effect
       effect="fillet_chamfer"
       id="path-effect10"
       is_visible="true"
       lpeversion="1"
       nodesatellites_param="F,0,0,1,0,0,0,1 @ F,0,0,1,0,5,0,1 @ F,0,0,1,0,5,0,1 @ F,0,0,1,0,0,0,1"
       radius="0"
       unit="px"
       method="auto"
       mode="F"
       chamfer_steps="1"
       flexible="false"
       use_knot_distance="true"
       apply_no_radius="true"
       apply_with_radius="true"
       only_selected="false"
       hide_knots="false" />
  </defs>
  <g
     inkscape:label="Vrstva 1"
     inkscape:groupmode="layer"
     id="layer1">
    <path
       id="path25"
       style="opacity:1;fill:#575757;fill-opacity:0.65237;stroke-width:0"
       d="m 104.56933,114.75734 c -5.356674,4e-5 -9.698938,1.07658 -9.698635,2.4045 0.01054,9.26512 1.987654,17.42724 4.952483,21.71654 1.537052,2.22371 3.808742,5.31278 3.808742,8.0742 v 18.69519 c 0.14335,-0.005 0.28379,-0.0129 0.42529,-0.0196 -0.1415,0.007 -0.28194,0.0148 -0.42529,0.0196 -4.940167,0.16518 -8.761237,1.68791 -8.761225,2.94297 9e-6,1.32789 4.342052,2.81172 9.698635,2.81172 5.35658,0 9.69914,-1.48383 9.69915,-2.81172 1e-5,-1.24155 -3.88067,-2.74428 -8.76174,-2.93677 -0.16973,-0.007 -0.33725,-0.0164 -0.50591,-0.0243 0.16866,0.008 0.33618,0.0176 0.50591,0.0243 v -18.70139 c 0,-2.76142 2.27184,-5.85027 3.80897,-8.07391 2.96496,-4.28917 4.94222,-12.45143 4.95277,-21.71683 3e-4,-1.32797 -4.34227,-2.40453 -9.69915,-2.4045 z m 9.68675,2.51974 c -0.003,0.0124 -0.006,0.0248 -0.009,0.0372 0.003,-0.0124 0.006,-0.0248 0.009,-0.0372 z m -0.0346,0.1173 c -0.005,0.0131 -0.0109,0.0262 -0.017,0.0393 0.006,-0.0131 0.0118,-0.0262 0.017,-0.0393 z m -19.242751,0.10749 c 0.02231,0.0344 0.04764,0.0687 0.07596,0.10284 -0.02832,-0.0341 -0.05365,-0.0684 -0.07596,-0.10284 z m 19.184361,0.01 c -0.008,0.0134 -0.0157,0.0269 -0.0243,0.0403 0.009,-0.0134 0.0167,-0.0269 0.0243,-0.0403 z m -0.21808,0.2651 c -0.0106,0.01 -0.0215,0.0193 -0.0326,0.0289 0.0111,-0.01 0.022,-0.0192 0.0326,-0.0289 z m -18.660874,0.0656 c 0.04115,0.0356 0.0856,0.0709 0.133326,0.10594 -0.04772,-0.035 -0.09218,-0.0704 -0.133326,-0.10594 z m 18.528064,0.047 c -0.0166,0.013 -0.0337,0.0259 -0.0512,0.0388 0.0175,-0.0129 0.0346,-0.0258 0.0512,-0.0388 z m -0.15606,0.11163 c -0.0175,0.0119 -0.0354,0.0238 -0.0537,0.0357 0.0183,-0.0119 0.0362,-0.0238 0.0537,-0.0357 z m -0.18397,0.11368 c -0.018,0.0107 -0.0362,0.0214 -0.0548,0.032 0.0186,-0.0106 0.0368,-0.0213 0.0548,-0.032 z m -17.623727,0.0915 c 0.03395,0.0192 0.06892,0.0384 0.104903,0.0574 -0.03598,-0.019 -0.07095,-0.0382 -0.104903,-0.0574 z m 17.157607,0.14159 c -0.031,0.0133 -0.0626,0.0266 -0.0946,0.0398 0.032,-0.0132 0.0636,-0.0265 0.0946,-0.0398 z m -0.27388,0.11214 c -0.0169,0.007 -0.034,0.0131 -0.0512,0.0196 0.0172,-0.007 0.0343,-0.013 0.0512,-0.0196 z m -16.062588,0.0935 c 0.0764,0.0252 0.154792,0.05 0.235127,0.0744 -0.08033,-0.0244 -0.158725,-0.0492 -0.235127,-0.0744 z m 0.893485,0.26561 c 0.103141,0.0268 0.208761,0.0529 0.316777,0.0785 -0.108016,-0.0256 -0.213636,-0.0517 -0.316777,-0.0785 z m 13.906643,0.032 c -0.0334,0.008 -0.0669,0.0166 -0.10077,0.0248 0.0338,-0.008 0.0674,-0.0165 0.10077,-0.0248 z m -0.32659,0.078 c -0.039,0.009 -0.0783,0.018 -0.11783,0.0269 0.0396,-0.009 0.0789,-0.0178 0.11783,-0.0269 z m -12.471593,0.13591 c 0.09217,0.0187 0.18572,0.037 0.280603,0.0548 -0.09488,-0.0178 -0.188434,-0.0361 -0.280603,-0.0548 z m 11.228253,0.10491 c -0.0406,0.007 -0.0815,0.0131 -0.12247,0.0196 0.041,-0.006 0.0819,-0.013 0.12247,-0.0196 z m -0.3638,0.0563 c -0.0633,0.009 -0.12704,0.0188 -0.1912,0.0279 0.0642,-0.009 0.1279,-0.0184 0.1912,-0.0279 z m -9.41493,0.0713 c 0.0799,0.009 0.1604,0.0182 0.24133,0.0269 -0.0809,-0.009 -0.16138,-0.0177 -0.24133,-0.0269 z m 8.42481,0.0574 c -0.0634,0.007 -0.12718,0.0136 -0.1912,0.0202 0.064,-0.007 0.12776,-0.0133 0.1912,-0.0202 z m -0.4129,0.0429 c -0.0672,0.006 -0.13477,0.0126 -0.20257,0.0186 0.0678,-0.006 0.13533,-0.0122 0.20257,-0.0186 z m -6.72258,0.0341 c 0.1314,0.0109 0.26372,0.021 0.39687,0.0305 -0.13315,-0.009 -0.26547,-0.0196 -0.39687,-0.0305 z m 6.23941,0.009 c -0.0455,0.004 -0.0912,0.008 -0.13694,0.0114 0.0458,-0.004 0.0914,-0.008 0.13694,-0.0114 z m -4.8674,0.0796 c 0.13946,0.007 0.27954,0.0135 0.42013,0.0191 -0.14059,-0.006 -0.28067,-0.012 -0.42013,-0.0191 z m 3.37343,0.0129 c -0.0803,0.003 -0.16073,0.006 -0.24132,0.009 0.0806,-0.003 0.16104,-0.006 0.24132,-0.009 z m -0.42478,0.015 c -0.0929,0.003 -0.1859,0.005 -0.27905,0.007 0.0932,-0.002 0.18617,-0.004 0.27905,-0.007 z m -0.47955,0.0109 c -0.0754,0.002 -0.15084,0.003 -0.22635,0.004 0.0755,-0.001 0.15097,-0.002 0.22635,-0.004 z"
       inkscape:path-effect="#path-effect29"
       inkscape:original-d="m 104.56933,114.75734 a 9.6989565,2.4043641 0 0 0 -9.698635,2.4045 9.6989565,24.980928 0 0 0 8.761225,24.79074 v 23.69519 c 0.14335,-0.005 0.28379,-0.0129 0.42529,-0.0196 -0.1415,0.007 -0.28194,0.0148 -0.42529,0.0196 -4.940167,0.16518 -8.761237,1.68791 -8.761225,2.94297 9e-6,1.32789 4.342052,2.81172 9.698635,2.81172 5.35658,0 9.69914,-1.48383 9.69915,-2.81172 1e-5,-1.24155 -3.88067,-2.74428 -8.76174,-2.93677 -0.16973,-0.007 -0.33725,-0.0164 -0.50591,-0.0243 0.16866,0.008 0.33618,0.0176 0.50591,0.0243 v -23.70139 a 9.6989565,24.980928 0 0 0 8.76174,-24.79074 9.6989565,2.4043641 0 0 0 -9.69915,-2.4045 z m 9.68675,2.51974 a 9.6989565,2.4043641 0 0 1 -0.009,0.0372 9.6989565,2.4043641 0 0 0 0.009,-0.0372 z m -0.0346,0.1173 a 9.6989565,2.4043641 0 0 1 -0.017,0.0393 9.6989565,2.4043641 0 0 0 0.017,-0.0393 z m -19.242751,0.10749 a 9.6989565,2.4043641 0 0 0 0.07596,0.10284 9.6989565,2.4043641 0 0 1 -0.07596,-0.10284 z m 19.184361,0.01 a 9.6989565,2.4043641 0 0 1 -0.0243,0.0403 9.6989565,2.4043641 0 0 0 0.0243,-0.0403 z m -0.21808,0.2651 a 9.6989565,2.4043641 0 0 1 -0.0326,0.0289 9.6989565,2.4043641 0 0 0 0.0326,-0.0289 z m -18.660874,0.0656 a 9.6989565,2.4043641 0 0 0 0.133326,0.10594 9.6989565,2.4043641 0 0 1 -0.133326,-0.10594 z m 18.528064,0.047 a 9.6989565,2.4043641 0 0 1 -0.0512,0.0388 9.6989565,2.4043641 0 0 0 0.0512,-0.0388 z m -0.15606,0.11163 a 9.6989565,2.4043641 0 0 1 -0.0537,0.0357 9.6989565,2.4043641 0 0 0 0.0537,-0.0357 z m -0.18397,0.11368 a 9.6989565,2.4043641 0 0 1 -0.0548,0.032 9.6989565,2.4043641 0 0 0 0.0548,-0.032 z m -17.623727,0.0915 a 9.6989565,2.4043641 0 0 0 0.104903,0.0574 9.6989565,2.4043641 0 0 1 -0.104903,-0.0574 z m 17.157607,0.14159 a 9.6989565,2.4043641 0 0 1 -0.0946,0.0398 9.6989565,2.4043641 0 0 0 0.0946,-0.0398 z m -0.27388,0.11214 a 9.6989565,2.4043641 0 0 1 -0.0512,0.0196 9.6989565,2.4043641 0 0 0 0.0512,-0.0196 z m -16.062588,0.0935 a 9.6989565,2.4043641 0 0 0 0.235127,0.0744 9.6989565,2.4043641 0 0 1 -0.235127,-0.0744 z m 0.893485,0.26561 a 9.6989565,2.4043641 0 0 0 0.316777,0.0785 9.6989565,2.4043641 0 0 1 -0.316777,-0.0785 z m 13.906643,0.032 a 9.6989565,2.4043641 0 0 1 -0.10077,0.0248 9.6989565,2.4043641 0 0 0 0.10077,-0.0248 z m -0.32659,0.078 a 9.6989565,2.4043641 0 0 1 -0.11783,0.0269 9.6989565,2.4043641 0 0 0 0.11783,-0.0269 z m -12.471593,0.13591 a 9.6989565,2.4043641 0 0 0 0.280603,0.0548 9.6989565,2.4043641 0 0 1 -0.280603,-0.0548 z m 11.228253,0.10491 a 9.6989565,2.4043641 0 0 1 -0.12247,0.0196 9.6989565,2.4043641 0 0 0 0.12247,-0.0196 z m -0.3638,0.0563 a 9.6989565,2.4043641 0 0 1 -0.1912,0.0279 9.6989565,2.4043641 0 0 0 0.1912,-0.0279 z m -9.41493,0.0713 a 9.6989565,2.4043641 0 0 0 0.24133,0.0269 9.6989565,2.4043641 0 0 1 -0.24133,-0.0269 z m 8.42481,0.0574 a 9.6989565,2.4043641 0 0 1 -0.1912,0.0202 9.6989565,2.4043641 0 0 0 0.1912,-0.0202 z m -0.4129,0.0429 a 9.6989565,2.4043641 0 0 1 -0.20257,0.0186 9.6989565,2.4043641 0 0 0 0.20257,-0.0186 z m -6.72258,0.0341 a 9.6989565,2.4043641 0 0 0 0.39687,0.0305 9.6989565,2.4043641 0 0 1 -0.39687,-0.0305 z m 6.23941,0.009 a 9.6989565,2.4043641 0 0 1 -0.13694,0.0114 9.6989565,2.4043641 0 0 0 0.13694,-0.0114 z m -4.8674,0.0796 a 9.6989565,2.4043641 0 0 0 0.42013,0.0191 9.6989565,2.4043641 0 0 1 -0.42013,-0.0191 z m 3.37343,0.0129 a 9.6989565,2.4043641 0 0 1 -0.24132,0.009 9.6989565,2.4043641 0 0 0 0.24132,-0.009 z m -0.42478,0.015 a 9.6989565,2.4043641 0 0 1 -0.27905,0.007 9.6989565,2.4043641 0 0 0 0.27905,-0.007 z m -0.47955,0.0109 a 9.6989565,2.4043641 0 0 1 -0.22635,0.004 9.6989565,2.4043641 0 0 0 0.22635,-0.004 z"
       transform="translate(33.579583,-6.194292)" />
    <path
       id="path2"
       style="fill:#ff1212;fill-opacity:1;stroke-width:0;stroke-dasharray:none"
       d="m 35.767488,41.671322 c -3.381628,0 -6.762773,1.295406 -9.353951,3.886584 -5.182356,5.182357 -5.182356,13.52658 0,18.708936 L 28.751895,66.6052 47.460831,85.314136 66.16925,66.6052 68.508125,64.266842 c 5.182356,-5.182356 5.182356,-13.526579 0,-18.708936 -5.182356,-5.182356 -13.526579,-5.182356 -18.708936,0 l -2.338358,2.338876 -2.338875,-2.338876 c -2.591179,-2.591178 -5.97284,-3.886584 -9.354468,-3.886584 z" />
    <g
       id="g31"
       transform="translate(28.363337,15.322722)">
      <rect
         style="fill:#000000;fill-opacity:1;stroke-width:0;stroke-dasharray:none"
         id="rect4"
         width="4.7258172"
         height="61.550888"
         x="29.738071"
         y="86.332619"
         ry="2.3629086" />
      <path
         id="rect5-5"
         style="fill:#feff15;fill-opacity:1;stroke-width:0;stroke-dasharray:none"
         d="m 79.605036,89.26594 c 1.980757,7.29602 2.056624,14.83346 0.2276,22.61233 3.503108,-0.66409 6.475546,-0.81873 9.704794,-0.71057 3.105818,0.10403 6.412066,0.46265 9.657486,0.78238 5.093474,0.52063 10.487484,0.96905 16.193864,0.49146 2.29363,-0.19197 4.78091,-2.41659 5.06556,-4.7821 0.55445,-4.60766 0.54526,-9.156114 -0.0276,-13.645373 -0.33954,-2.660954 -3.17795,-4.258475 -5.76517,-4.081206 -5.09156,0.348858 -10.27412,-0.235678 -15.383412,-0.803161 -6.544487,-0.729753 -13.276651,-1.533731 -19.673162,0.13624 z m 19.838934,3.409906 c 0.63001,1.533282 1.28497,3.025863 1.99523,4.531738 1.68799,0.358522 3.40416,0.693059 5.17192,0.989243 -1.32394,1.068773 -2.5602,2.074123 -3.82297,3.143313 0.29775,1.59077 0.62825,3.16792 0.9881,4.74592 -1.58083,-0.79026 -3.09798,-1.58596 -4.614906,-2.42678 -0.170223,0.079 -0.339837,0.15811 -0.508981,0.23745 -1.308751,0.64342 -2.543742,1.2713 -3.792913,1.92906 0.201616,-1.62745 0.433472,-3.2421 0.703564,-4.85913 -1.188928,-1.223674 -2.272572,-2.401365 -3.394109,-3.647683 1.563043,-0.164948 3.152636,-0.300944 4.80725,-0.435335 0.608511,-1.103366 1.234108,-2.18259 1.887626,-3.263458 0.191545,-0.315505 0.384858,-0.630063 0.580189,-0.944338 z"
         inkscape:path-effect="#path-effect11;#path-effect12"
         inkscape:original-d="M 79.705212,89.329431 V 112.728 c 13.513425,-2.53748 24.801178,2.61131 39.996528,0 V 89.329431 Z m 20.16001,3.611149 2.223638,4.4943 4.963,0.716752 -3.58737,3.503658 0.85214,4.9413 -4.440556,-2.32905 -4.436421,2.33732 0.842842,-4.94285 -3.594096,-3.496942 4.961971,-0.726054 z"
         sodipodi:nodetypes="cccccccccccccccc"
         transform="translate(-44.745609,-0.81503842)" />
    </g>
    <g
       id="g30"
       transform="translate(95.848518,-159.0955)">
      <path
         style="opacity:1;fill:none;fill-opacity:0.934537;stroke:#000000;stroke-width:7.70032;stroke-linecap:round;stroke-linejoin:round;stroke-dasharray:none;stroke-opacity:1"
         d="m 13.68182,216.08512 h 19.136374 l 7.317855,30.0741 H 80.37347"
         id="path29"
         sodipodi:nodetypes="cccc" />
      <path
         id="rect30"
         style="opacity:1;stroke-width:7.63736;stroke-linecap:round;stroke-linejoin:round"
         d="m 35.616528,219.11656 h 44.837636 a 3.5731795,3.5731795 45 0 1 3.57318,3.57318 v 9.8001 a 4.4206203,4.4206203 131.53828 0 1 -3.887745,4.38838 l -44.523071,5.40637 z"
         sodipodi:nodetypes="ccccc"
         inkscape:original-d="m 35.616528,219.11656 h 48.410816 v 17.28958 l -48.410816,5.87845 z"
         inkscape:path-effect="#path-effect30" />
      <circle
         style="opacity:1;fill:#000000;fill-opacity:1;stroke:none;stroke-width:17.2121;stroke-linecap:round;stroke-linejoin:round;stroke-dasharray:none;stroke-opacity:1"
         id="path30"
         cx="48.698975"
         cy="253.63808"
         r="4.0918665" />
      <circle
         style="opacity:1;fill:#000000;fill-opacity:1;stroke:none;stroke-width:17.2121;stroke-linecap:round;stroke-linejoin:round;stroke-dasharray:none;stroke-opacity:1"
         id="circle30"
         cx="74.057022"
         cy="253.63808"
         r="4.0918665" />
    </g>
  </g>
</svg>
