<?xml version="1.0" encoding="UTF-8" standalone="no"?>
<!-- Created with Inkscape (http://www.inkscape.org/) -->

<svg
   width="210mm"
   height="297mm"
   viewBox="0 0 210 297"
   version="1.1"
   id="svg1"
   inkscape:version="1.4 (86a8ad7, 2024-10-11)"
   sodipodi:docname="výkres-1.svg"
   xmlns:inkscape="http://www.inkscape.org/namespaces/inkscape"
   xmlns:sodipodi="http://sodipodi.sourceforge.net/DTD/sodipodi-0.dtd"
   xmlns:xlink="http://www.w3.org/1999/xlink"
   xmlns="http://www.w3.org/2000/svg"
   xmlns:svg="http://www.w3.org/2000/svg">
  <sodipodi:namedview
     id="namedview1"
     pagecolor="#ffffff"
     bordercolor="#999999"
     borderopacity="1"
     inkscape:showpageshadow="2"
     inkscape:pageopacity="0"
     inkscape:pagecheckerboard="0"
     inkscape:deskcolor="#d1d1d1"
     inkscape:document-units="mm"
     inkscape:zoom="0.81156706"
     inkscape:cx="216.8644"
     inkscape:cy="637.65525"
     inkscape:window-width="1920"
     inkscape:window-height="1171"
     inkscape:window-x="-9"
     inkscape:window-y="-9"
     inkscape:window-maximized="1"
     inkscape:current-layer="layer1" />
  <defs
     id="defs1">
    <linearGradient
       id="linearGradient31"
       inkscape:collect="always">
      <stop
         style="stop-color:#800080;stop-opacity:1;"
         offset="0"
         id="stop31" />
      <stop
         style="stop-color:#4f0086;stop-opacity:1;"
         offset="1"
         id="stop32" />
    </linearGradient>
    <radialGradient
       inkscape:collect="always"
       xlink:href="#linearGradient31"
       id="radialGradient32"
       cx="87.374847"
       cy="83.785835"
       fx="87.374847"
       fy="83.785835"
       r="507.59909"
       gradientTransform="matrix(1,0,0,0.86814787,0,11.047341)"
       gradientUnits="userSpaceOnUse" />
  </defs>
  <g
     inkscape:label="Vrstva 1"
     inkscape:groupmode="layer"
     id="layer1">
    <path
       id="path1"
       style="stroke-linecap:round;stroke-linejoin:round;stroke:#ffcc00;stroke-opacity:1;opacity:1;stroke-width:1.0004268;stroke-dasharray:none;fill:url(#radialGradient32);fill-rule:evenodd"
       d="M -162.36968 -356.38503 A 7.5951823 7.5951823 0 0 0 -168.94842 -352.5941 L -418.70416 79.984951 A 7.5951823 7.5951823 0 0 0 -418.70416 87.58921 L -168.94842 520.16826 A 7.5951823 7.5951823 0 0 0 -162.36719 523.9567 L 337.11689 523.9567 A 7.5951823 7.5951823 0 0 0 343.69813 520.16826 L 593.45386 87.58921 A 7.5951823 7.5951823 0 0 0 593.45386 79.984951 L 343.69813 -352.5941 A 7.5951823 7.5951823 0 0 0 337.11689 -356.38503 L -162.36968 -356.38503 z M -157.98883 -341.19891 L 193.18606 -341.19891 L -197.79483 -272.25778 L -157.98883 -341.19891 z M 253.1365 -341.19891 L 332.71364 -341.19891 L 508.27371 -37.145532 L 253.1365 -341.19891 z M 239.93172 -335.42415 L 445.09986 -90.932909 L 168.69064 -322.86157 L 239.93172 -335.42415 z M 157.77834 -315.60828 L 380.05669 -129.10853 L 95.980981 -293.1166 L 157.77834 -315.60828 z M 115.01279 -313.39794 L -224.13966 -189.95754 L -199.38537 -257.96276 L 115.01279 -313.39794 z M 87.356183 -284.89752 L 315.79759 -153.01652 L 35.580014 -255.00569 L 87.356183 -284.89752 z M 49.426984 -276.17067 L -234.73087 -112.11531 L -223.30332 -176.90709 L 49.426984 -276.17067 z M 29.155598 -246.28631 L 254.49556 -164.2773 L -12.4799 -211.35152 L 29.155598 -246.28631 z M -3.4294621 -232.48414 L -231.92563 -40.752265 L -231.92314 -100.56331 L -3.4294621 -232.48414 z M -227.77129 -220.34222 L -363.56021 152.7195 L -403.3662 83.773391 L -227.77129 -220.34222 z M -16.853282 -202.53257 L 197.83325 -164.68551 L -48.614443 -164.68053 L -16.853282 -202.53257 z M -43.842802 -185.03406 L -218.14835 22.695383 L -227.58958 -30.853038 L -43.842802 -185.03406 z M 234.56518 -158.20882 L 283.22249 -149.63132 L 357.79899 55.243106 L 234.56518 -158.20882 z M 225.86571 -156.10552 L 324.97497 15.541655 L 180.94955 -156.10303 L 225.86571 -156.10552 z M 147.04526 -156.10303 L -73.597733 -117.19561 L -51.13841 -156.09556 L 147.04526 -156.10303 z M 173.49215 -152.84477 L 289.32083 -14.818132 L 133.28043 -145.75327 L 173.49215 -152.84477 z M 293.04953 -150.24862 L 344.11879 -131.66237 L 385.7742 104.5202 L 293.04953 -150.24862 z M 127.11737 -141.66116 L 252.60134 -36.376394 L 92.234857 -128.96416 L 127.11737 -141.66116 z M 102.92065 -140.39918 L -88.467731 -70.736196 L -74.501283 -109.11095 L 102.92065 -140.39918 z M -242.78068 -138.74889 L -305.45421 216.68738 L -351.97834 161.24474 L -242.78068 -138.74889 z M -72.539857 -136.16767 L -195.79855 77.321594 L -212.70216 30.87214 L -72.539857 -136.16767 z M 354.88423 -130.45265 L 406.65791 -100.56331 L 406.66786 163.2435 L 354.88423 -130.45265 z M 87.36614 -124.32693 L 216.33238 -49.874887 L 58.14388 -107.45319 L 87.36614 -124.32693 z M 65.91491 -119.38354 L -94.446595 -26.798263 L -87.999777 -63.355957 L 65.91491 -119.38354 z M 54.514744 -102.5322 L 181.73114 -56.234587 L 31.01497 -82.810913 L 54.514744 -102.5322 z M 418.08545 -97.198022 L 468.46274 -54.930289 L 418.08296 230.85545 L 418.08545 -97.198022 z M 36.082816 -94.71637 L -92.863516 13.485642 L -92.863516 -20.261836 L 36.082816 -94.71637 z M -90.513787 -87.893694 L -167.16372 122.70322 L -189.633 83.783347 L -90.513787 -87.893694 z M 28.543274 -77.832674 L 149.73849 -56.468564 L 10.616638 -56.468564 L 28.543274 -77.832674 z M 13.26755 -67.921002 L -85.087507 49.29909 L -90.414222 19.08616 L 13.26755 -67.921002 z M -243.33575 -63.321109 L -243.33824 264.78463 L -293.7429 222.48952 L -243.33575 -63.321109 z M 170.45543 -52.817026 L 197.93033 -47.9732 L 240.0288 67.693681 L 170.45543 -52.817026 z M 140.18774 -51.627227 L 165.55435 -51.627227 L 221.50726 45.286629 L 140.18774 -51.627227 z M 121.06632 -51.624738 L -3.4842227 -29.665728 L 9.1903723 -51.622249 L 121.06632 -51.624738 z M 135.98859 -49.790257 L 201.37776 28.136598 L 113.28036 -45.785265 L 135.98859 -49.790257 z M 480.20142 -49.100771 L 526.70066 6.3095116 L 417.53536 306.27327 L 480.20142 -49.100771 z M 203.46613 -48.326655 L 232.30755 -37.83004 L 255.81977 95.514566 L 203.46613 -48.326655 z M 109.81053 -43.475362 L 180.65086 15.964805 L 90.116616 -36.306699 L 109.81053 -43.475362 z M 96.170154 -42.768452 L -11.882511 -3.4403684 L -3.9994704 -25.100684 L 96.170154 -42.768452 z M -98.989238 -41.827565 L -134.36709 158.80789 L -160.62481 127.51219 L -98.989238 -41.827565 z M -2.9216818 -40.331604 L -72.472651 80.134298 L -82.010956 53.926362 L -2.9216818 -40.331604 z M 238.37105 -37.152999 L 267.60824 -20.274282 L 267.60824 128.65719 L 238.37105 -37.152999 z M 87.371118 -33.690634 L 160.17288 8.3406328 L 70.868257 -24.162286 L 87.371118 -33.690634 z M 75.266531 -30.900332 L -15.257757 21.361215 L -11.618664 0.72641715 L 75.266531 -30.900332 z M 68.82718 -21.389407 L 140.64325 4.7488338 L 55.557685 -10.253088 L 68.82718 -21.389407 z M 274.04759 -18.380062 L 302.49574 5.4881022 L 274.04759 166.83281 L 274.04759 -18.380062 z M 58.42515 -16.976199 L -14.364163 44.099319 L -14.364163 25.052579 L 58.42515 -16.976199 z M -13.057375 -13.083216 L -56.308311 105.75231 L -68.985395 83.793304 L -13.057375 -13.083216 z M 54.166267 -7.4478504 L 122.58967 4.6169105 L 44.04302 4.6169105 L 54.166267 -7.4478504 z M 45.551426 -1.8572886 L -9.9758456 64.315946 L -12.982702 47.26299 L 45.551426 -1.8572886 z M -99.302867 0.7463301 L -99.302867 185.95671 L -127.75101 162.08357 L -99.302867 0.7463301 z M -231.92563 4.2883467 L -180.13452 298.03428 L -231.93558 268.12752 L -231.92563 4.2883467 z M 134.2711 6.6754121 L 149.77831 9.4109541 L 173.53945 74.695573 L 134.2711 6.6754121 z M 43.241523 7.3474743 L 106.40541 7.3474743 L 36.082816 19.748266 L 43.241523 7.3474743 z M 117.1833 7.3474743 L 131.5032 7.3474743 L 163.07768 62.038402 L 117.1833 7.3474743 z M 114.81366 8.385437 L 151.71734 52.365684 L 101.99469 10.645557 L 114.81366 8.385437 z M 309.10932 8.7662722 L 335.36953 40.05699 L 273.73645 209.39426 L 309.10932 8.7662722 z M 152.90216 9.2118246 L 169.18349 15.138417 L 182.45298 90.394448 L 152.90216 9.2118246 z M 100.03825 11.949856 L 140.02097 45.500694 L 88.91935 15.997164 L 100.03825 11.949856 z M 92.354334 12.345626 L 31.346022 34.548569 L 35.796568 22.319526 L 92.354334 12.345626 z M -17.831506 12.905677 L -37.796731 126.13322 L -52.611969 108.47541 L -17.831506 12.905677 z M 36.413869 13.712152 L -2.8544755 81.722356 L -8.2384404 66.929521 L 36.413869 13.712152 z M 538.30493 14.867103 L 578.09101 83.773391 L 402.53841 387.8666 L 538.30493 14.867103 z M 172.60603 15.519253 L 189.10889 25.047601 L 189.11138 109.11262 L 172.60603 15.519253 z M 87.371118 17.473211 L 128.46648 41.199496 L 78.056834 22.849709 L 87.371118 17.473211 z M 80.543464 19.043845 L 29.439357 48.549865 L 31.492881 36.898298 L 80.543464 19.043845 z M 76.904371 24.417854 L 117.43719 39.170863 L 69.414612 30.70288 L 76.904371 24.417854 z M 192.74549 26.112944 L 208.8028 39.586546 L 192.74798 130.64351 L 192.74549 26.112944 z M 71.042496 26.901995 L 29.942159 61.386252 L 29.942159 50.628279 L 71.042496 26.901995 z M 30.688895 29.089931 L 6.2681464 96.18165 L -0.88807136 83.788325 L 30.688895 29.089931 z M 68.62805 32.288449 L 107.24176 39.09619 L 62.915522 39.09619 L 68.62805 32.288449 z M 63.764311 35.442163 L 32.421322 72.796375 L 30.723743 63.168462 L 63.764311 35.442163 z M -18.003255 36.940613 L -18.003255 141.45624 L -34.055585 127.98762 L -18.003255 36.940613 z M -92.863516 38.911995 L -63.623832 204.72467 L -92.863516 187.84347 L -92.863516 38.911995 z M 113.84788 40.261098 L 122.60211 41.804352 L 136.01349 78.655762 L 113.84788 40.261098 z M 62.460013 40.639444 L 98.106689 40.639444 L 58.420172 47.638847 L 62.460013 40.639444 z M 104.20254 40.639444 L 112.28471 40.639444 L 130.10929 71.516968 L 104.20254 40.639444 z M 102.8634 41.224387 L 123.69732 66.053351 L 95.627526 42.501305 L 102.8634 41.224387 z M 212.53897 41.438451 L 227.35918 59.101241 L 192.57374 154.68093 L 212.53897 41.438451 z M 124.36441 41.692341 L 133.55424 45.037717 L 141.044 87.519515 L 124.36441 41.692341 z M 94.522357 43.235595 L 116.8398 61.961239 L 88.316983 45.493226 L 94.522357 43.235595 z M 90.178844 43.462105 L 55.744369 55.99482 L 58.258379 49.090004 L 90.178844 43.462105 z M 27.99069 43.768267 L 16.717469 107.68636 L 8.3540283 97.719926 L 27.99069 43.768267 z M 58.609345 44.228754 L 36.44125 82.623418 L 33.399546 74.269934 L 58.609345 44.228754 z M 341.90845 44.870946 L 364.37773 83.785836 L 265.261 255.4579 L 341.90845 44.870946 z M 135.48579 45.251782 L 144.80257 50.630768 L 144.80008 98.080848 L 135.48579 45.251782 z M 87.373607 46.421668 L 119.72967 65.102507 L 119.72967 102.46917 L 87.373607 121.15 L 55.012568 102.46917 L 55.012568 65.102507 L 87.373607 46.421668 z M 83.199354 47.357577 L 54.681515 63.8231 L 55.828999 57.319032 L 83.199354 47.357577 z M 146.8536 51.233135 L 155.91897 58.839883 L 146.8536 110.23771 L 146.8536 51.233135 z M 55.375979 52.910802 L 41.591237 90.78524 L 37.551397 83.785836 L 55.375979 52.910802 z M 27.891125 57.331477 L 27.891125 116.33605 L 18.830731 108.73428 L 27.891125 57.331477 z M -14.364163 58.488918 L 2.1362085 152.04993 L -14.361674 142.52656 L -14.364163 58.488918 z M 158.02477 59.882824 L 166.39319 69.854236 L 146.75403 123.81087 L 158.02477 59.882824 z M 53.852638 61.19459 L 47.49045 97.276862 L 42.768591 91.651453 L 53.852638 61.19459 z M 231.05304 61.819359 L 243.7351 83.785836 L 187.78717 180.69223 L 231.05304 61.819359 z M -211.04192 63.011647 L -118.29734 317.82776 L -169.39646 299.22906 L -211.04192 63.011647 z M 121.00659 65.458451 L 126.06448 69.7024 L 121.00659 98.382031 L 121.00659 65.458451 z M 53.738139 69.179685 L 53.738139 102.11322 L 48.680249 97.869273 L 53.738139 69.179685 z M 29.944648 69.490825 L 39.256443 122.3174 L 29.947137 116.94339 L 29.944648 69.490825 z M 127.25179 70.292321 L 131.97613 75.92022 L 120.89209 106.37459 L 127.25179 70.292321 z M 168.47409 71.387533 L 175.63529 83.788325 L 144.05334 138.48921 L 168.47409 71.387533 z M -81.072558 72.062085 L -28.721402 215.89833 L -57.562827 205.39922 L -81.072558 72.062085 z M 133.15349 76.786433 L 137.19333 83.785836 L 119.36626 114.66585 L 133.15349 76.786433 z M -7.7032798 77.18967 L 21.840076 158.35985 L 5.5662148 152.43574 L -7.7032798 77.18967 z M 33.700729 80.054647 L 50.377828 125.87933 L 41.192978 122.53644 L 33.700729 80.054647 z M 138.30348 84.948255 L 141.34269 93.301739 L 116.1304 123.35039 L 138.30348 84.948255 z M 177.5992 85.846827 L 182.98565 100.64713 L 138.32588 153.86948 L 177.5992 85.846827 z M 247.21489 87.432396 L 256.75817 113.65278 L 177.644 207.93812 L 247.21489 87.432396 z M 38.731239 88.913422 L 60.896846 127.31057 L 52.147592 125.76732 L 38.731239 88.913422 z M 370.54328 90.252568 L 387.44937 136.69704 L 247.28458 303.73934 L 370.54328 90.252568 z M 1.2127453 92.893523 L 40.473623 160.89377 L 24.968899 158.16072 L 1.2127453 92.893523 z M 142.3234 94.772808 L 144.02098 104.4057 L 110.97046 132.13698 L 142.3234 94.772808 z M 44.637919 96.059683 L 70.539694 126.93223 L 62.462502 126.93223 L 44.637919 96.059683 z M -65.286564 99.880481 L 4.2917857 220.3887 L -23.18809 215.54238 L -65.286564 99.880481 z M 51.04989 101.52081 L 79.117198 125.07037 L 71.883818 126.34729 L 51.04989 101.52081 z M 184.72057 103.25324 L 187.72992 120.31615 L 129.17836 169.4439 L 184.72057 103.25324 z M 120.06072 103.75106 L 118.91324 110.25015 L 91.54786 120.21161 L 120.06072 103.75106 z M 11.669535 105.53825 L 57.558937 160.2242 L 43.246501 160.2242 L 11.669535 105.53825 z M 57.907414 105.61043 L 86.425252 122.07596 L 80.222367 124.33359 L 57.907414 105.61043 z M 144.80008 106.18542 L 144.80008 116.94339 L 103.69974 140.67217 L 144.80008 106.18542 z M 118.99787 111.57934 L 116.48635 118.47918 L 84.575837 124.10957 L 118.99787 111.57934 z M -183.06671 112.30368 L -59.81548 325.78796 L -108.49767 317.20299 L -183.06671 112.30368 z M 23.032364 115.21097 L 72.745053 156.92363 L 59.933557 159.18375 L 23.032364 115.21097 z M 259.83223 118.2676 L 265.16144 148.49298 L 161.44731 235.52254 L 259.83223 118.2676 z M 145.30537 119.02181 L 143.24936 130.67337 L 94.198772 148.52783 L 145.30537 119.02181 z M 116.32206 119.93531 L 112.28471 126.92974 L 76.643014 126.93223 L 116.32206 119.93531 z M 34.733714 122.07845 L 85.825375 151.57451 L 74.708968 155.62182 L 34.733714 122.07845 z M -46.755071 122.295 L 34.556986 219.1989 L 9.1903723 219.1989 L -46.755071 122.295 z M 189.11138 123.46986 L 189.11138 142.52905 L 116.30464 184.56032 L 189.11138 123.46986 z M 46.295672 126.37964 L 96.685402 144.72196 L 87.376096 150.09597 L 46.295672 126.37964 z M 57.317492 128.4033 L 105.33011 136.86879 L 97.842842 143.15133 L 57.317492 128.4033 z M 67.507946 128.47548 L 111.83169 128.47548 L 106.11916 135.28322 L 67.507946 128.47548 z M 143.40119 133.02061 L 138.94816 145.25215 L 82.410303 155.22107 L 143.40119 133.02061 z M -26.635521 139.43259 L 61.464365 213.35694 L 38.753641 217.35944 L -26.635521 139.43259 z M 392.89308 144.87878 L 402.3368 198.42222 L 218.59002 352.60324 L 392.89308 144.87878 z M 190.00248 146.20797 L 186.36339 166.85272 L 99.463259 198.47947 L 190.00248 146.20797 z M 138.6644 147.82341 L 131.5032 160.2242 L 68.336823 160.2242 L 138.6644 147.82341 z M -5.9136031 151.60189 L 84.633087 203.87588 L 64.931708 211.04703 L -5.9136031 151.60189 z M -150.24767 152.00513 L -6.1973626 323.67968 L -51.13841 323.67968 L -150.24767 152.00513 z M 267.60824 154.08354 L 267.60824 187.84347 L 138.642 262.30298 L 267.60824 154.08354 z M 14.56687 159.22855 L 103.87647 191.73396 L 87.371118 201.26231 L 14.56687 159.22855 z M 34.101477 162.82284 L 119.18953 177.82476 L 105.91755 188.96108 L 34.101477 162.82284 z M 52.157548 162.95476 L 130.70171 162.95476 L 120.57846 175.01952 L 52.157548 162.95476 z M 186.62972 171.01204 L 178.74171 192.68231 L 78.567103 210.34012 L 186.62972 171.01204 z M -114.59353 182.37487 L 41.46927 313.32992 L 1.2351473 320.42391 L -114.59353 182.37487 z M 269.19381 194.36496 L 262.7445 230.93759 L 108.8099 286.96517 L 269.19381 194.36496 z M 178.23641 197.23242 L 165.55186 219.20388 L 53.658487 219.20139 L 178.23641 197.23242 z M -77.886485 203.92815 L 82.512357 296.53832 L 47.612417 309.2403 L -77.886485 203.92815 z M -333.56134 204.67738 L -78.389287 508.77307 L -157.98883 508.77307 L -333.56134 204.67738 z M 406.66786 208.32643 L 406.67035 268.13249 L 178.16672 400.06079 L 406.66786 208.32643 z M -41.610062 217.4366 L 116.60582 275.02487 L 87.36614 291.90607 L -41.610062 217.4366 z M -7.0113046 223.80128 L 143.73722 250.38259 L 120.22251 270.11383 L -7.0113046 223.80128 z M 24.986323 224.03775 L 164.13058 224.04024 L 146.19647 245.4143 L 24.986323 224.03775 z M 263.21246 238.30787 L 249.24103 276.69258 L 71.781764 307.98329 L 263.21246 238.30787 z M -270.40243 258.46227 L 6.0590604 490.43573 L -65.206912 503.00081 L -270.40243 258.46227 z M 409.47559 279.68948 L 398.05302 344.47876 L 125.32521 443.74234 L 409.47559 279.68948 z M 248.34246 284.76479 L 225.87567 323.67719 L 27.659637 323.67968 L 248.34246 284.76479 z M -205.36921 296.64287 L 78.768722 460.68578 L 16.948957 483.18742 L -205.36921 296.64287 z M -141.10016 320.57077 L 139.1672 422.57736 L 87.376096 452.47915 L -141.10016 320.57077 z M -79.790661 331.8415 L 187.22711 378.9207 L 145.57668 413.86794 L -79.790661 331.8415 z M 223.35917 332.25221 L 191.59054 370.1142 L -23.13333 332.25469 L 223.35917 332.25221 z M 398.8819 357.5317 L 374.13259 425.53444 L 59.734427 480.96961 L 398.8819 357.5317 z M 372.53706 439.83194 L 332.73853 508.77307 L -18.451297 508.77307 L 372.53706 439.83194 z "
       transform="matrix(0.20760931,0,0,0.20760931,86.860735,131.10526)" />
  </g>
</svg>
